<?xml version="1.0" encoding="utf-8" standalone="no"?>
<!DOCTYPE svg PUBLIC "-//W3C//DTD SVG 1.1//EN"
  "http://www.w3.org/Graphics/SVG/1.1/DTD/svg11.dtd">
<svg xmlns:xlink="http://www.w3.org/1999/xlink" width="432pt" height="288pt" viewBox="0 0 432 288" xmlns="http://www.w3.org/2000/svg" version="1.1">
 <metadata>
  <rdf:RDF xmlns:dc="http://purl.org/dc/elements/1.1/" xmlns:cc="http://creativecommons.org/ns#" xmlns:rdf="http://www.w3.org/1999/02/22-rdf-syntax-ns#">
   <cc:Work>
    <dc:type rdf:resource="http://purl.org/dc/dcmitype/StillImage"/>
    <dc:date>2025-05-03T23:30:34.608683</dc:date>
    <dc:format>image/svg+xml</dc:format>
    <dc:creator>
     <cc:Agent>
      <dc:title>Matplotlib v3.9.4, https://matplotlib.org/</dc:title>
     </cc:Agent>
    </dc:creator>
   </cc:Work>
  </rdf:RDF>
 </metadata>
 <defs>
  <style type="text/css">*{stroke-linejoin: round; stroke-linecap: butt}</style>
 </defs>
 <g id="figure_1">
  <g id="patch_1">
   <path d="M 0 288 
L 432 288 
L 432 0 
L 0 0 
z
" style="fill: #ffffff"/>
  </g>
  <g id="axes_1">
   <g id="patch_2">
    <path d="M 66.62 246.04 
L 421.2 246.04 
L 421.2 26.88 
L 66.62 26.88 
z
" style="fill: #ffffff"/>
   </g>
   <g id="patch_3">
    <path d="M 82.737273 246.04 
L 87.77392 246.04 
L 87.77392 37.31619 
L 82.737273 37.31619 
z
" clip-path="url(#p7085936ebb)" style="fill: #1f77b4"/>
   </g>
   <g id="patch_4">
    <path d="M 87.77392 246.04 
L 92.810568 246.04 
L 92.810568 79.431509 
L 87.77392 79.431509 
z
" clip-path="url(#p7085936ebb)" style="fill: #1f77b4"/>
   </g>
   <g id="patch_5">
    <path d="M 92.810568 246.04 
L 97.847216 246.04 
L 97.847216 76.6651 
L 92.810568 76.6651 
z
" clip-path="url(#p7085936ebb)" style="fill: #1f77b4"/>
   </g>
   <g id="patch_6">
    <path d="M 97.847216 246.04 
L 102.883864 246.04 
L 102.883864 75.657572 
L 97.847216 75.657572 
z
" clip-path="url(#p7085936ebb)" style="fill: #1f77b4"/>
   </g>
   <g id="patch_7">
    <path d="M 102.883864 246.04 
L 107.920511 246.04 
L 107.920511 70.133278 
L 102.883864 70.133278 
z
" clip-path="url(#p7085936ebb)" style="fill: #1f77b4"/>
   </g>
   <g id="patch_8">
    <path d="M 107.920511 246.04 
L 112.957159 246.04 
L 112.957159 67.217418 
L 107.920511 67.217418 
z
" clip-path="url(#p7085936ebb)" style="fill: #1f77b4"/>
   </g>
   <g id="patch_9">
    <path d="M 112.957159 246.04 
L 117.993807 246.04 
L 117.993807 65.172493 
L 112.957159 65.172493 
z
" clip-path="url(#p7085936ebb)" style="fill: #1f77b4"/>
   </g>
   <g id="patch_10">
    <path d="M 117.993807 246.04 
L 123.030455 246.04 
L 123.030455 60.792338 
L 117.993807 60.792338 
z
" clip-path="url(#p7085936ebb)" style="fill: #1f77b4"/>
   </g>
   <g id="patch_11">
    <path d="M 123.030455 246.04 
L 128.067102 246.04 
L 128.067102 57.513614 
L 123.030455 57.513614 
z
" clip-path="url(#p7085936ebb)" style="fill: #1f77b4"/>
   </g>
   <g id="patch_12">
    <path d="M 128.067102 246.04 
L 133.10375 246.04 
L 133.10375 51.02022 
L 128.067102 51.02022 
z
" clip-path="url(#p7085936ebb)" style="fill: #1f77b4"/>
   </g>
   <g id="patch_13">
    <path d="M 133.10375 246.04 
L 138.140398 246.04 
L 138.140398 46.345479 
L 133.10375 46.345479 
z
" clip-path="url(#p7085936ebb)" style="fill: #1f77b4"/>
   </g>
   <g id="patch_14">
    <path d="M 138.140398 246.04 
L 143.177045 246.04 
L 143.177045 44.667699 
L 138.140398 44.667699 
z
" clip-path="url(#p7085936ebb)" style="fill: #1f77b4"/>
   </g>
   <g id="patch_15">
    <path d="M 143.177045 246.04 
L 148.213693 246.04 
L 148.213693 41.704887 
L 143.177045 41.704887 
z
" clip-path="url(#p7085936ebb)" style="fill: #1f77b4"/>
   </g>
   <g id="patch_16">
    <path d="M 148.213693 246.04 
L 153.250341 246.04 
L 153.250341 42.998441 
L 148.213693 42.998441 
z
" clip-path="url(#p7085936ebb)" style="fill: #1f77b4"/>
   </g>
   <g id="patch_17">
    <path d="M 153.250341 246.04 
L 158.286989 246.04 
L 158.286989 42.191577 
L 153.250341 42.191577 
z
" clip-path="url(#p7085936ebb)" style="fill: #1f77b4"/>
   </g>
   <g id="patch_18">
    <path d="M 158.286989 246.04 
L 163.323636 246.04 
L 163.323636 46.046632 
L 158.286989 46.046632 
z
" clip-path="url(#p7085936ebb)" style="fill: #1f77b4"/>
   </g>
   <g id="patch_19">
    <path d="M 163.323636 246.04 
L 168.360284 246.04 
L 168.360284 49.867539 
L 163.323636 49.867539 
z
" clip-path="url(#p7085936ebb)" style="fill: #1f77b4"/>
   </g>
   <g id="patch_20">
    <path d="M 168.360284 246.04 
L 173.396932 246.04 
L 173.396932 53.35117 
L 168.360284 53.35117 
z
" clip-path="url(#p7085936ebb)" style="fill: #1f77b4"/>
   </g>
   <g id="patch_21">
    <path d="M 173.396932 246.04 
L 178.43358 246.04 
L 178.43358 58.884006 
L 173.396932 58.884006 
z
" clip-path="url(#p7085936ebb)" style="fill: #1f77b4"/>
   </g>
   <g id="patch_22">
    <path d="M 178.43358 246.04 
L 183.470227 246.04 
L 183.470227 66.167218 
L 178.43358 66.167218 
z
" clip-path="url(#p7085936ebb)" style="fill: #1f77b4"/>
   </g>
   <g id="patch_23">
    <path d="M 183.470227 246.04 
L 188.506875 246.04 
L 188.506875 76.152804 
L 183.470227 76.152804 
z
" clip-path="url(#p7085936ebb)" style="fill: #1f77b4"/>
   </g>
   <g id="patch_24">
    <path d="M 188.506875 246.04 
L 193.543523 246.04 
L 193.543523 83.235351 
L 188.506875 83.235351 
z
" clip-path="url(#p7085936ebb)" style="fill: #1f77b4"/>
   </g>
   <g id="patch_25">
    <path d="M 193.543523 246.04 
L 198.58017 246.04 
L 198.58017 93.754569 
L 193.543523 93.754569 
z
" clip-path="url(#p7085936ebb)" style="fill: #1f77b4"/>
   </g>
   <g id="patch_26">
    <path d="M 198.58017 246.04 
L 203.616818 246.04 
L 203.616818 104.623866 
L 198.58017 104.623866 
z
" clip-path="url(#p7085936ebb)" style="fill: #1f77b4"/>
   </g>
   <g id="patch_27">
    <path d="M 203.616818 246.04 
L 208.653466 246.04 
L 208.653466 117.444175 
L 203.616818 117.444175 
z
" clip-path="url(#p7085936ebb)" style="fill: #1f77b4"/>
   </g>
   <g id="patch_28">
    <path d="M 208.653466 246.04 
L 213.690114 246.04 
L 213.690114 125.649508 
L 208.653466 125.649508 
z
" clip-path="url(#p7085936ebb)" style="fill: #1f77b4"/>
   </g>
   <g id="patch_29">
    <path d="M 213.690114 246.04 
L 218.726761 246.04 
L 218.726761 134.939216 
L 213.690114 134.939216 
z
" clip-path="url(#p7085936ebb)" style="fill: #1f77b4"/>
   </g>
   <g id="patch_30">
    <path d="M 218.726761 246.04 
L 223.763409 246.04 
L 223.763409 145.650547 
L 218.726761 145.650547 
z
" clip-path="url(#p7085936ebb)" style="fill: #1f77b4"/>
   </g>
   <g id="patch_31">
    <path d="M 223.763409 246.04 
L 228.800057 246.04 
L 228.800057 152.408641 
L 223.763409 152.408641 
z
" clip-path="url(#p7085936ebb)" style="fill: #1f77b4"/>
   </g>
   <g id="patch_32">
    <path d="M 228.800057 246.04 
L 233.836705 246.04 
L 233.836705 156.246622 
L 228.800057 156.246622 
z
" clip-path="url(#p7085936ebb)" style="fill: #1f77b4"/>
   </g>
   <g id="patch_33">
    <path d="M 233.836705 246.04 
L 238.873352 246.04 
L 238.873352 159.935179 
L 233.836705 159.935179 
z
" clip-path="url(#p7085936ebb)" style="fill: #1f77b4"/>
   </g>
   <g id="patch_34">
    <path d="M 238.873352 246.04 
L 243.91 246.04 
L 243.91 119.762322 
L 238.873352 119.762322 
z
" clip-path="url(#p7085936ebb)" style="fill: #1f77b4"/>
   </g>
   <g id="patch_35">
    <path d="M 243.91 246.04 
L 248.946648 246.04 
L 248.946648 123.216085 
L 243.91 123.216085 
z
" clip-path="url(#p7085936ebb)" style="fill: #1f77b4"/>
   </g>
   <g id="patch_36">
    <path d="M 248.946648 246.04 
L 253.983295 246.04 
L 253.983295 164.046392 
L 248.946648 164.046392 
z
" clip-path="url(#p7085936ebb)" style="fill: #1f77b4"/>
   </g>
   <g id="patch_37">
    <path d="M 253.983295 246.04 
L 259.019943 246.04 
L 259.019943 161.608698 
L 253.983295 161.608698 
z
" clip-path="url(#p7085936ebb)" style="fill: #1f77b4"/>
   </g>
   <g id="patch_38">
    <path d="M 259.019943 246.04 
L 264.056591 246.04 
L 264.056591 157.493224 
L 259.019943 157.493224 
z
" clip-path="url(#p7085936ebb)" style="fill: #1f77b4"/>
   </g>
   <g id="patch_39">
    <path d="M 264.056591 246.04 
L 269.093239 246.04 
L 269.093239 150.291131 
L 264.056591 150.291131 
z
" clip-path="url(#p7085936ebb)" style="fill: #1f77b4"/>
   </g>
   <g id="patch_40">
    <path d="M 269.093239 246.04 
L 274.129886 246.04 
L 274.129886 140.591589 
L 269.093239 140.591589 
z
" clip-path="url(#p7085936ebb)" style="fill: #1f77b4"/>
   </g>
   <g id="patch_41">
    <path d="M 274.129886 246.04 
L 279.166534 246.04 
L 279.166534 130.998772 
L 274.129886 130.998772 
z
" clip-path="url(#p7085936ebb)" style="fill: #1f77b4"/>
   </g>
   <g id="patch_42">
    <path d="M 279.166534 246.04 
L 284.203182 246.04 
L 284.203182 123.540539 
L 279.166534 123.540539 
z
" clip-path="url(#p7085936ebb)" style="fill: #1f77b4"/>
   </g>
   <g id="patch_43">
    <path d="M 284.203182 246.04 
L 289.23983 246.04 
L 289.23983 115.651119 
L 284.203182 115.651119 
z
" clip-path="url(#p7085936ebb)" style="fill: #1f77b4"/>
   </g>
   <g id="patch_44">
    <path d="M 289.23983 246.04 
L 294.276477 246.04 
L 294.276477 109.115025 
L 289.23983 109.115025 
z
" clip-path="url(#p7085936ebb)" style="fill: #1f77b4"/>
   </g>
   <g id="patch_45">
    <path d="M 294.276477 246.04 
L 299.313125 246.04 
L 299.313125 104.393333 
L 294.276477 104.393333 
z
" clip-path="url(#p7085936ebb)" style="fill: #1f77b4"/>
   </g>
   <g id="patch_46">
    <path d="M 299.313125 246.04 
L 304.349773 246.04 
L 304.349773 99.812514 
L 299.313125 99.812514 
z
" clip-path="url(#p7085936ebb)" style="fill: #1f77b4"/>
   </g>
   <g id="patch_47">
    <path d="M 304.349773 246.04 
L 309.38642 246.04 
L 309.38642 98.045073 
L 304.349773 98.045073 
z
" clip-path="url(#p7085936ebb)" style="fill: #1f77b4"/>
   </g>
   <g id="patch_48">
    <path d="M 309.38642 246.04 
L 314.423068 246.04 
L 314.423068 98.91599 
L 309.38642 98.91599 
z
" clip-path="url(#p7085936ebb)" style="fill: #1f77b4"/>
   </g>
   <g id="patch_49">
    <path d="M 314.423068 246.04 
L 319.459716 246.04 
L 319.459716 98.506148 
L 314.423068 98.506148 
z
" clip-path="url(#p7085936ebb)" style="fill: #1f77b4"/>
   </g>
   <g id="patch_50">
    <path d="M 319.459716 246.04 
L 324.496364 246.04 
L 324.496364 97.746235 
L 319.459716 97.746235 
z
" clip-path="url(#p7085936ebb)" style="fill: #1f77b4"/>
   </g>
   <g id="patch_51">
    <path d="M 324.496364 246.04 
L 329.533011 246.04 
L 329.533011 95.65435 
L 324.496364 95.65435 
z
" clip-path="url(#p7085936ebb)" style="fill: #1f77b4"/>
   </g>
   <g id="patch_52">
    <path d="M 329.533011 246.04 
L 334.569659 246.04 
L 334.569659 92.516508 
L 329.533011 92.516508 
z
" clip-path="url(#p7085936ebb)" style="fill: #1f77b4"/>
   </g>
   <g id="patch_53">
    <path d="M 334.569659 246.04 
L 339.606307 246.04 
L 339.606307 88.503488 
L 334.569659 88.503488 
z
" clip-path="url(#p7085936ebb)" style="fill: #1f77b4"/>
   </g>
   <g id="patch_54">
    <path d="M 339.606307 246.04 
L 344.642955 246.04 
L 344.642955 85.258912 
L 339.606307 85.258912 
z
" clip-path="url(#p7085936ebb)" style="fill: #1f77b4"/>
   </g>
   <g id="patch_55">
    <path d="M 344.642955 246.04 
L 349.679602 246.04 
L 349.679602 81.502059 
L 344.642955 81.502059 
z
" clip-path="url(#p7085936ebb)" style="fill: #1f77b4"/>
   </g>
   <g id="patch_56">
    <path d="M 349.679602 246.04 
L 354.71625 246.04 
L 354.71625 78.889326 
L 349.679602 78.889326 
z
" clip-path="url(#p7085936ebb)" style="fill: #1f77b4"/>
   </g>
   <g id="patch_57">
    <path d="M 354.71625 246.04 
L 359.752898 246.04 
L 359.752898 78.526444 
L 354.71625 78.526444 
z
" clip-path="url(#p7085936ebb)" style="fill: #1f77b4"/>
   </g>
   <g id="patch_58">
    <path d="M 359.752898 246.04 
L 364.789545 246.04 
L 364.789545 75.456926 
L 359.752898 75.456926 
z
" clip-path="url(#p7085936ebb)" style="fill: #1f77b4"/>
   </g>
   <g id="patch_59">
    <path d="M 364.789545 246.04 
L 369.826193 246.04 
L 369.826193 73.22414 
L 364.789545 73.22414 
z
" clip-path="url(#p7085936ebb)" style="fill: #1f77b4"/>
   </g>
   <g id="patch_60">
    <path d="M 369.826193 246.04 
L 374.862841 246.04 
L 374.862841 76.007651 
L 369.826193 76.007651 
z
" clip-path="url(#p7085936ebb)" style="fill: #1f77b4"/>
   </g>
   <g id="patch_61">
    <path d="M 374.862841 246.04 
L 379.899489 246.04 
L 379.899489 76.741938 
L 374.862841 76.741938 
z
" clip-path="url(#p7085936ebb)" style="fill: #1f77b4"/>
   </g>
   <g id="patch_62">
    <path d="M 379.899489 246.04 
L 384.936136 246.04 
L 384.936136 79.5724 
L 379.899489 79.5724 
z
" clip-path="url(#p7085936ebb)" style="fill: #1f77b4"/>
   </g>
   <g id="patch_63">
    <path d="M 384.936136 246.04 
L 389.972784 246.04 
L 389.972784 81.369709 
L 384.936136 81.369709 
z
" clip-path="url(#p7085936ebb)" style="fill: #1f77b4"/>
   </g>
   <g id="patch_64">
    <path d="M 389.972784 246.04 
L 395.009432 246.04 
L 395.009432 82.398582 
L 389.972784 82.398582 
z
" clip-path="url(#p7085936ebb)" style="fill: #1f77b4"/>
   </g>
   <g id="patch_65">
    <path d="M 395.009432 246.04 
L 400.04608 246.04 
L 400.04608 81.258723 
L 395.009432 81.258723 
z
" clip-path="url(#p7085936ebb)" style="fill: #1f77b4"/>
   </g>
   <g id="patch_66">
    <path d="M 400.04608 246.04 
L 405.082727 246.04 
L 405.082727 38.293832 
L 400.04608 38.293832 
z
" clip-path="url(#p7085936ebb)" style="fill: #1f77b4"/>
   </g>
   <g id="matplotlib.axis_1">
    <g id="xtick_1">
     <g id="line2d_1">
      <defs>
       <path id="mc993e85fdb" d="M 0 0 
L 0 3.5 
" style="stroke: #000000; stroke-width: 0.8"/>
      </defs>
      <g>
       <use xlink:href="#mc993e85fdb" x="82.737273" y="246.04" style="stroke: #000000; stroke-width: 0.8"/>
      </g>
     </g>
     <g id="text_1">
      <!-- 0 -->
      <g transform="translate(79.556023 260.638438) scale(0.1 -0.1)">
       <defs>
        <path id="DejaVuSans-30" d="M 2034 4250 
Q 1547 4250 1301 3770 
Q 1056 3291 1056 2328 
Q 1056 1369 1301 889 
Q 1547 409 2034 409 
Q 2525 409 2770 889 
Q 3016 1369 3016 2328 
Q 3016 3291 2770 3770 
Q 2525 4250 2034 4250 
z
M 2034 4750 
Q 2819 4750 3233 4129 
Q 3647 3509 3647 2328 
Q 3647 1150 3233 529 
Q 2819 -91 2034 -91 
Q 1250 -91 836 529 
Q 422 1150 422 2328 
Q 422 3509 836 4129 
Q 1250 4750 2034 4750 
z
" transform="scale(0.015625)"/>
       </defs>
       <use xlink:href="#DejaVuSans-30"/>
      </g>
     </g>
    </g>
    <g id="xtick_2">
     <g id="line2d_2">
      <g>
       <use xlink:href="#mc993e85fdb" x="145.942264" y="246.04" style="stroke: #000000; stroke-width: 0.8"/>
      </g>
     </g>
     <g id="text_2">
      <!-- 50 -->
      <g transform="translate(139.579764 260.638438) scale(0.1 -0.1)">
       <defs>
        <path id="DejaVuSans-35" d="M 691 4666 
L 3169 4666 
L 3169 4134 
L 1269 4134 
L 1269 2991 
Q 1406 3038 1543 3061 
Q 1681 3084 1819 3084 
Q 2600 3084 3056 2656 
Q 3513 2228 3513 1497 
Q 3513 744 3044 326 
Q 2575 -91 1722 -91 
Q 1428 -91 1123 -41 
Q 819 9 494 109 
L 494 744 
Q 775 591 1075 516 
Q 1375 441 1709 441 
Q 2250 441 2565 725 
Q 2881 1009 2881 1497 
Q 2881 1984 2565 2268 
Q 2250 2553 1709 2553 
Q 1456 2553 1204 2497 
Q 953 2441 691 2322 
L 691 4666 
z
" transform="scale(0.015625)"/>
       </defs>
       <use xlink:href="#DejaVuSans-35"/>
       <use xlink:href="#DejaVuSans-30" x="63.623047"/>
      </g>
     </g>
    </g>
    <g id="xtick_3">
     <g id="line2d_3">
      <g>
       <use xlink:href="#mc993e85fdb" x="209.147255" y="246.04" style="stroke: #000000; stroke-width: 0.8"/>
      </g>
     </g>
     <g id="text_3">
      <!-- 100 -->
      <g transform="translate(199.603505 260.638438) scale(0.1 -0.1)">
       <defs>
        <path id="DejaVuSans-31" d="M 794 531 
L 1825 531 
L 1825 4091 
L 703 3866 
L 703 4441 
L 1819 4666 
L 2450 4666 
L 2450 531 
L 3481 531 
L 3481 0 
L 794 0 
L 794 531 
z
" transform="scale(0.015625)"/>
       </defs>
       <use xlink:href="#DejaVuSans-31"/>
       <use xlink:href="#DejaVuSans-30" x="63.623047"/>
       <use xlink:href="#DejaVuSans-30" x="127.246094"/>
      </g>
     </g>
    </g>
    <g id="xtick_4">
     <g id="line2d_4">
      <g>
       <use xlink:href="#mc993e85fdb" x="272.352246" y="246.04" style="stroke: #000000; stroke-width: 0.8"/>
      </g>
     </g>
     <g id="text_4">
      <!-- 150 -->
      <g transform="translate(262.808496 260.638438) scale(0.1 -0.1)">
       <use xlink:href="#DejaVuSans-31"/>
       <use xlink:href="#DejaVuSans-35" x="63.623047"/>
       <use xlink:href="#DejaVuSans-30" x="127.246094"/>
      </g>
     </g>
    </g>
    <g id="xtick_5">
     <g id="line2d_5">
      <g>
       <use xlink:href="#mc993e85fdb" x="335.557237" y="246.04" style="stroke: #000000; stroke-width: 0.8"/>
      </g>
     </g>
     <g id="text_5">
      <!-- 200 -->
      <g transform="translate(326.013487 260.638438) scale(0.1 -0.1)">
       <defs>
        <path id="DejaVuSans-32" d="M 1228 531 
L 3431 531 
L 3431 0 
L 469 0 
L 469 531 
Q 828 903 1448 1529 
Q 2069 2156 2228 2338 
Q 2531 2678 2651 2914 
Q 2772 3150 2772 3378 
Q 2772 3750 2511 3984 
Q 2250 4219 1831 4219 
Q 1534 4219 1204 4116 
Q 875 4013 500 3803 
L 500 4441 
Q 881 4594 1212 4672 
Q 1544 4750 1819 4750 
Q 2544 4750 2975 4387 
Q 3406 4025 3406 3419 
Q 3406 3131 3298 2873 
Q 3191 2616 2906 2266 
Q 2828 2175 2409 1742 
Q 1991 1309 1228 531 
z
" transform="scale(0.015625)"/>
       </defs>
       <use xlink:href="#DejaVuSans-32"/>
       <use xlink:href="#DejaVuSans-30" x="63.623047"/>
       <use xlink:href="#DejaVuSans-30" x="127.246094"/>
      </g>
     </g>
    </g>
    <g id="xtick_6">
     <g id="line2d_6">
      <g>
       <use xlink:href="#mc993e85fdb" x="398.762228" y="246.04" style="stroke: #000000; stroke-width: 0.8"/>
      </g>
     </g>
     <g id="text_6">
      <!-- 250 -->
      <g transform="translate(389.218478 260.638438) scale(0.1 -0.1)">
       <use xlink:href="#DejaVuSans-32"/>
       <use xlink:href="#DejaVuSans-35" x="63.623047"/>
       <use xlink:href="#DejaVuSans-30" x="127.246094"/>
      </g>
     </g>
    </g>
    <g id="text_7">
     <!-- Chunk Content -->
     <g transform="translate(206.542812 274.316562) scale(0.1 -0.1)">
      <defs>
       <path id="DejaVuSans-43" d="M 4122 4306 
L 4122 3641 
Q 3803 3938 3442 4084 
Q 3081 4231 2675 4231 
Q 1875 4231 1450 3742 
Q 1025 3253 1025 2328 
Q 1025 1406 1450 917 
Q 1875 428 2675 428 
Q 3081 428 3442 575 
Q 3803 722 4122 1019 
L 4122 359 
Q 3791 134 3420 21 
Q 3050 -91 2638 -91 
Q 1578 -91 968 557 
Q 359 1206 359 2328 
Q 359 3453 968 4101 
Q 1578 4750 2638 4750 
Q 3056 4750 3426 4639 
Q 3797 4528 4122 4306 
z
" transform="scale(0.015625)"/>
       <path id="DejaVuSans-68" d="M 3513 2113 
L 3513 0 
L 2938 0 
L 2938 2094 
Q 2938 2591 2744 2837 
Q 2550 3084 2163 3084 
Q 1697 3084 1428 2787 
Q 1159 2491 1159 1978 
L 1159 0 
L 581 0 
L 581 4863 
L 1159 4863 
L 1159 2956 
Q 1366 3272 1645 3428 
Q 1925 3584 2291 3584 
Q 2894 3584 3203 3211 
Q 3513 2838 3513 2113 
z
" transform="scale(0.015625)"/>
       <path id="DejaVuSans-75" d="M 544 1381 
L 544 3500 
L 1119 3500 
L 1119 1403 
Q 1119 906 1312 657 
Q 1506 409 1894 409 
Q 2359 409 2629 706 
Q 2900 1003 2900 1516 
L 2900 3500 
L 3475 3500 
L 3475 0 
L 2900 0 
L 2900 538 
Q 2691 219 2414 64 
Q 2138 -91 1772 -91 
Q 1169 -91 856 284 
Q 544 659 544 1381 
z
M 1991 3584 
L 1991 3584 
z
" transform="scale(0.015625)"/>
       <path id="DejaVuSans-6e" d="M 3513 2113 
L 3513 0 
L 2938 0 
L 2938 2094 
Q 2938 2591 2744 2837 
Q 2550 3084 2163 3084 
Q 1697 3084 1428 2787 
Q 1159 2491 1159 1978 
L 1159 0 
L 581 0 
L 581 3500 
L 1159 3500 
L 1159 2956 
Q 1366 3272 1645 3428 
Q 1925 3584 2291 3584 
Q 2894 3584 3203 3211 
Q 3513 2838 3513 2113 
z
" transform="scale(0.015625)"/>
       <path id="DejaVuSans-6b" d="M 581 4863 
L 1159 4863 
L 1159 1991 
L 2875 3500 
L 3609 3500 
L 1753 1863 
L 3688 0 
L 2938 0 
L 1159 1709 
L 1159 0 
L 581 0 
L 581 4863 
z
" transform="scale(0.015625)"/>
       <path id="DejaVuSans-20" transform="scale(0.015625)"/>
       <path id="DejaVuSans-6f" d="M 1959 3097 
Q 1497 3097 1228 2736 
Q 959 2375 959 1747 
Q 959 1119 1226 758 
Q 1494 397 1959 397 
Q 2419 397 2687 759 
Q 2956 1122 2956 1747 
Q 2956 2369 2687 2733 
Q 2419 3097 1959 3097 
z
M 1959 3584 
Q 2709 3584 3137 3096 
Q 3566 2609 3566 1747 
Q 3566 888 3137 398 
Q 2709 -91 1959 -91 
Q 1206 -91 779 398 
Q 353 888 353 1747 
Q 353 2609 779 3096 
Q 1206 3584 1959 3584 
z
" transform="scale(0.015625)"/>
       <path id="DejaVuSans-74" d="M 1172 4494 
L 1172 3500 
L 2356 3500 
L 2356 3053 
L 1172 3053 
L 1172 1153 
Q 1172 725 1289 603 
Q 1406 481 1766 481 
L 2356 481 
L 2356 0 
L 1766 0 
Q 1100 0 847 248 
Q 594 497 594 1153 
L 594 3053 
L 172 3053 
L 172 3500 
L 594 3500 
L 594 4494 
L 1172 4494 
z
" transform="scale(0.015625)"/>
       <path id="DejaVuSans-65" d="M 3597 1894 
L 3597 1613 
L 953 1613 
Q 991 1019 1311 708 
Q 1631 397 2203 397 
Q 2534 397 2845 478 
Q 3156 559 3463 722 
L 3463 178 
Q 3153 47 2828 -22 
Q 2503 -91 2169 -91 
Q 1331 -91 842 396 
Q 353 884 353 1716 
Q 353 2575 817 3079 
Q 1281 3584 2069 3584 
Q 2775 3584 3186 3129 
Q 3597 2675 3597 1894 
z
M 3022 2063 
Q 3016 2534 2758 2815 
Q 2500 3097 2075 3097 
Q 1594 3097 1305 2825 
Q 1016 2553 972 2059 
L 3022 2063 
z
" transform="scale(0.015625)"/>
      </defs>
      <use xlink:href="#DejaVuSans-43"/>
      <use xlink:href="#DejaVuSans-68" x="69.824219"/>
      <use xlink:href="#DejaVuSans-75" x="133.203125"/>
      <use xlink:href="#DejaVuSans-6e" x="196.582031"/>
      <use xlink:href="#DejaVuSans-6b" x="259.960938"/>
      <use xlink:href="#DejaVuSans-20" x="317.871094"/>
      <use xlink:href="#DejaVuSans-43" x="349.658203"/>
      <use xlink:href="#DejaVuSans-6f" x="419.482422"/>
      <use xlink:href="#DejaVuSans-6e" x="480.664062"/>
      <use xlink:href="#DejaVuSans-74" x="544.042969"/>
      <use xlink:href="#DejaVuSans-65" x="583.251953"/>
      <use xlink:href="#DejaVuSans-6e" x="644.775391"/>
      <use xlink:href="#DejaVuSans-74" x="708.154297"/>
     </g>
    </g>
   </g>
   <g id="matplotlib.axis_2">
    <g id="ytick_1">
     <g id="line2d_7">
      <defs>
       <path id="m83cb779624" d="M 0 0 
L -3.5 0 
" style="stroke: #000000; stroke-width: 0.8"/>
      </defs>
      <g>
       <use xlink:href="#m83cb779624" x="66.62" y="246.04" style="stroke: #000000; stroke-width: 0.8"/>
      </g>
     </g>
     <g id="text_8">
      <!-- 0.0000 -->
      <g transform="translate(24.629375 249.839219) scale(0.1 -0.1)">
       <defs>
        <path id="DejaVuSans-2e" d="M 684 794 
L 1344 794 
L 1344 0 
L 684 0 
L 684 794 
z
" transform="scale(0.015625)"/>
       </defs>
       <use xlink:href="#DejaVuSans-30"/>
       <use xlink:href="#DejaVuSans-2e" x="63.623047"/>
       <use xlink:href="#DejaVuSans-30" x="95.410156"/>
       <use xlink:href="#DejaVuSans-30" x="159.033203"/>
       <use xlink:href="#DejaVuSans-30" x="222.65625"/>
       <use xlink:href="#DejaVuSans-30" x="286.279297"/>
      </g>
     </g>
    </g>
    <g id="ytick_2">
     <g id="line2d_8">
      <g>
       <use xlink:href="#m83cb779624" x="66.62" y="221.278835" style="stroke: #000000; stroke-width: 0.8"/>
      </g>
     </g>
     <g id="text_9">
      <!-- 0.0025 -->
      <g transform="translate(24.629375 225.078054) scale(0.1 -0.1)">
       <use xlink:href="#DejaVuSans-30"/>
       <use xlink:href="#DejaVuSans-2e" x="63.623047"/>
       <use xlink:href="#DejaVuSans-30" x="95.410156"/>
       <use xlink:href="#DejaVuSans-30" x="159.033203"/>
       <use xlink:href="#DejaVuSans-32" x="222.65625"/>
       <use xlink:href="#DejaVuSans-35" x="286.279297"/>
      </g>
     </g>
    </g>
    <g id="ytick_3">
     <g id="line2d_9">
      <g>
       <use xlink:href="#m83cb779624" x="66.62" y="196.51767" style="stroke: #000000; stroke-width: 0.8"/>
      </g>
     </g>
     <g id="text_10">
      <!-- 0.0050 -->
      <g transform="translate(24.629375 200.316889) scale(0.1 -0.1)">
       <use xlink:href="#DejaVuSans-30"/>
       <use xlink:href="#DejaVuSans-2e" x="63.623047"/>
       <use xlink:href="#DejaVuSans-30" x="95.410156"/>
       <use xlink:href="#DejaVuSans-30" x="159.033203"/>
       <use xlink:href="#DejaVuSans-35" x="222.65625"/>
       <use xlink:href="#DejaVuSans-30" x="286.279297"/>
      </g>
     </g>
    </g>
    <g id="ytick_4">
     <g id="line2d_10">
      <g>
       <use xlink:href="#m83cb779624" x="66.62" y="171.756505" style="stroke: #000000; stroke-width: 0.8"/>
      </g>
     </g>
     <g id="text_11">
      <!-- 0.0075 -->
      <g transform="translate(24.629375 175.555724) scale(0.1 -0.1)">
       <defs>
        <path id="DejaVuSans-37" d="M 525 4666 
L 3525 4666 
L 3525 4397 
L 1831 0 
L 1172 0 
L 2766 4134 
L 525 4134 
L 525 4666 
z
" transform="scale(0.015625)"/>
       </defs>
       <use xlink:href="#DejaVuSans-30"/>
       <use xlink:href="#DejaVuSans-2e" x="63.623047"/>
       <use xlink:href="#DejaVuSans-30" x="95.410156"/>
       <use xlink:href="#DejaVuSans-30" x="159.033203"/>
       <use xlink:href="#DejaVuSans-37" x="222.65625"/>
       <use xlink:href="#DejaVuSans-35" x="286.279297"/>
      </g>
     </g>
    </g>
    <g id="ytick_5">
     <g id="line2d_11">
      <g>
       <use xlink:href="#m83cb779624" x="66.62" y="146.99534" style="stroke: #000000; stroke-width: 0.8"/>
      </g>
     </g>
     <g id="text_12">
      <!-- 0.0100 -->
      <g transform="translate(24.629375 150.794559) scale(0.1 -0.1)">
       <use xlink:href="#DejaVuSans-30"/>
       <use xlink:href="#DejaVuSans-2e" x="63.623047"/>
       <use xlink:href="#DejaVuSans-30" x="95.410156"/>
       <use xlink:href="#DejaVuSans-31" x="159.033203"/>
       <use xlink:href="#DejaVuSans-30" x="222.65625"/>
       <use xlink:href="#DejaVuSans-30" x="286.279297"/>
      </g>
     </g>
    </g>
    <g id="ytick_6">
     <g id="line2d_12">
      <g>
       <use xlink:href="#m83cb779624" x="66.62" y="122.234175" style="stroke: #000000; stroke-width: 0.8"/>
      </g>
     </g>
     <g id="text_13">
      <!-- 0.0125 -->
      <g transform="translate(24.629375 126.033393) scale(0.1 -0.1)">
       <use xlink:href="#DejaVuSans-30"/>
       <use xlink:href="#DejaVuSans-2e" x="63.623047"/>
       <use xlink:href="#DejaVuSans-30" x="95.410156"/>
       <use xlink:href="#DejaVuSans-31" x="159.033203"/>
       <use xlink:href="#DejaVuSans-32" x="222.65625"/>
       <use xlink:href="#DejaVuSans-35" x="286.279297"/>
      </g>
     </g>
    </g>
    <g id="ytick_7">
     <g id="line2d_13">
      <g>
       <use xlink:href="#m83cb779624" x="66.62" y="97.47301" style="stroke: #000000; stroke-width: 0.8"/>
      </g>
     </g>
     <g id="text_14">
      <!-- 0.0150 -->
      <g transform="translate(24.629375 101.272228) scale(0.1 -0.1)">
       <use xlink:href="#DejaVuSans-30"/>
       <use xlink:href="#DejaVuSans-2e" x="63.623047"/>
       <use xlink:href="#DejaVuSans-30" x="95.410156"/>
       <use xlink:href="#DejaVuSans-31" x="159.033203"/>
       <use xlink:href="#DejaVuSans-35" x="222.65625"/>
       <use xlink:href="#DejaVuSans-30" x="286.279297"/>
      </g>
     </g>
    </g>
    <g id="ytick_8">
     <g id="line2d_14">
      <g>
       <use xlink:href="#m83cb779624" x="66.62" y="72.711845" style="stroke: #000000; stroke-width: 0.8"/>
      </g>
     </g>
     <g id="text_15">
      <!-- 0.0175 -->
      <g transform="translate(24.629375 76.511063) scale(0.1 -0.1)">
       <use xlink:href="#DejaVuSans-30"/>
       <use xlink:href="#DejaVuSans-2e" x="63.623047"/>
       <use xlink:href="#DejaVuSans-30" x="95.410156"/>
       <use xlink:href="#DejaVuSans-31" x="159.033203"/>
       <use xlink:href="#DejaVuSans-37" x="222.65625"/>
       <use xlink:href="#DejaVuSans-35" x="286.279297"/>
      </g>
     </g>
    </g>
    <g id="ytick_9">
     <g id="line2d_15">
      <g>
       <use xlink:href="#m83cb779624" x="66.62" y="47.95068" style="stroke: #000000; stroke-width: 0.8"/>
      </g>
     </g>
     <g id="text_16">
      <!-- 0.0200 -->
      <g transform="translate(24.629375 51.749898) scale(0.1 -0.1)">
       <use xlink:href="#DejaVuSans-30"/>
       <use xlink:href="#DejaVuSans-2e" x="63.623047"/>
       <use xlink:href="#DejaVuSans-30" x="95.410156"/>
       <use xlink:href="#DejaVuSans-32" x="159.033203"/>
       <use xlink:href="#DejaVuSans-30" x="222.65625"/>
       <use xlink:href="#DejaVuSans-30" x="286.279297"/>
      </g>
     </g>
    </g>
    <g id="text_17">
     <!-- Frequency -->
     <g transform="translate(18.549688 162.289687) rotate(-90) scale(0.1 -0.1)">
      <defs>
       <path id="DejaVuSans-46" d="M 628 4666 
L 3309 4666 
L 3309 4134 
L 1259 4134 
L 1259 2759 
L 3109 2759 
L 3109 2228 
L 1259 2228 
L 1259 0 
L 628 0 
L 628 4666 
z
" transform="scale(0.015625)"/>
       <path id="DejaVuSans-72" d="M 2631 2963 
Q 2534 3019 2420 3045 
Q 2306 3072 2169 3072 
Q 1681 3072 1420 2755 
Q 1159 2438 1159 1844 
L 1159 0 
L 581 0 
L 581 3500 
L 1159 3500 
L 1159 2956 
Q 1341 3275 1631 3429 
Q 1922 3584 2338 3584 
Q 2397 3584 2469 3576 
Q 2541 3569 2628 3553 
L 2631 2963 
z
" transform="scale(0.015625)"/>
       <path id="DejaVuSans-71" d="M 947 1747 
Q 947 1113 1208 752 
Q 1469 391 1925 391 
Q 2381 391 2643 752 
Q 2906 1113 2906 1747 
Q 2906 2381 2643 2742 
Q 2381 3103 1925 3103 
Q 1469 3103 1208 2742 
Q 947 2381 947 1747 
z
M 2906 525 
Q 2725 213 2448 61 
Q 2172 -91 1784 -91 
Q 1150 -91 751 415 
Q 353 922 353 1747 
Q 353 2572 751 3078 
Q 1150 3584 1784 3584 
Q 2172 3584 2448 3432 
Q 2725 3281 2906 2969 
L 2906 3500 
L 3481 3500 
L 3481 -1331 
L 2906 -1331 
L 2906 525 
z
" transform="scale(0.015625)"/>
       <path id="DejaVuSans-63" d="M 3122 3366 
L 3122 2828 
Q 2878 2963 2633 3030 
Q 2388 3097 2138 3097 
Q 1578 3097 1268 2742 
Q 959 2388 959 1747 
Q 959 1106 1268 751 
Q 1578 397 2138 397 
Q 2388 397 2633 464 
Q 2878 531 3122 666 
L 3122 134 
Q 2881 22 2623 -34 
Q 2366 -91 2075 -91 
Q 1284 -91 818 406 
Q 353 903 353 1747 
Q 353 2603 823 3093 
Q 1294 3584 2113 3584 
Q 2378 3584 2631 3529 
Q 2884 3475 3122 3366 
z
" transform="scale(0.015625)"/>
       <path id="DejaVuSans-79" d="M 2059 -325 
Q 1816 -950 1584 -1140 
Q 1353 -1331 966 -1331 
L 506 -1331 
L 506 -850 
L 844 -850 
Q 1081 -850 1212 -737 
Q 1344 -625 1503 -206 
L 1606 56 
L 191 3500 
L 800 3500 
L 1894 763 
L 2988 3500 
L 3597 3500 
L 2059 -325 
z
" transform="scale(0.015625)"/>
      </defs>
      <use xlink:href="#DejaVuSans-46"/>
      <use xlink:href="#DejaVuSans-72" x="50.269531"/>
      <use xlink:href="#DejaVuSans-65" x="89.132812"/>
      <use xlink:href="#DejaVuSans-71" x="150.65625"/>
      <use xlink:href="#DejaVuSans-75" x="214.132812"/>
      <use xlink:href="#DejaVuSans-65" x="277.511719"/>
      <use xlink:href="#DejaVuSans-6e" x="339.035156"/>
      <use xlink:href="#DejaVuSans-63" x="402.414062"/>
      <use xlink:href="#DejaVuSans-79" x="457.394531"/>
     </g>
    </g>
   </g>
   <g id="patch_67">
    <path d="M 66.62 246.04 
L 66.62 26.88 
" style="fill: none; stroke: #000000; stroke-width: 0.8; stroke-linejoin: miter; stroke-linecap: square"/>
   </g>
   <g id="patch_68">
    <path d="M 421.2 246.04 
L 421.2 26.88 
" style="fill: none; stroke: #000000; stroke-width: 0.8; stroke-linejoin: miter; stroke-linecap: square"/>
   </g>
   <g id="patch_69">
    <path d="M 66.62 246.04 
L 421.2 246.04 
" style="fill: none; stroke: #000000; stroke-width: 0.8; stroke-linejoin: miter; stroke-linecap: square"/>
   </g>
   <g id="patch_70">
    <path d="M 66.62 26.88 
L 421.2 26.88 
" style="fill: none; stroke: #000000; stroke-width: 0.8; stroke-linejoin: miter; stroke-linecap: square"/>
   </g>
   <g id="text_18">
    <!-- Chunks Distribution -->
    <g transform="translate(184.803438 20.88) scale(0.12 -0.12)">
     <defs>
      <path id="DejaVuSans-73" d="M 2834 3397 
L 2834 2853 
Q 2591 2978 2328 3040 
Q 2066 3103 1784 3103 
Q 1356 3103 1142 2972 
Q 928 2841 928 2578 
Q 928 2378 1081 2264 
Q 1234 2150 1697 2047 
L 1894 2003 
Q 2506 1872 2764 1633 
Q 3022 1394 3022 966 
Q 3022 478 2636 193 
Q 2250 -91 1575 -91 
Q 1294 -91 989 -36 
Q 684 19 347 128 
L 347 722 
Q 666 556 975 473 
Q 1284 391 1588 391 
Q 1994 391 2212 530 
Q 2431 669 2431 922 
Q 2431 1156 2273 1281 
Q 2116 1406 1581 1522 
L 1381 1569 
Q 847 1681 609 1914 
Q 372 2147 372 2553 
Q 372 3047 722 3315 
Q 1072 3584 1716 3584 
Q 2034 3584 2315 3537 
Q 2597 3491 2834 3397 
z
" transform="scale(0.015625)"/>
      <path id="DejaVuSans-44" d="M 1259 4147 
L 1259 519 
L 2022 519 
Q 2988 519 3436 956 
Q 3884 1394 3884 2338 
Q 3884 3275 3436 3711 
Q 2988 4147 2022 4147 
L 1259 4147 
z
M 628 4666 
L 1925 4666 
Q 3281 4666 3915 4102 
Q 4550 3538 4550 2338 
Q 4550 1131 3912 565 
Q 3275 0 1925 0 
L 628 0 
L 628 4666 
z
" transform="scale(0.015625)"/>
      <path id="DejaVuSans-69" d="M 603 3500 
L 1178 3500 
L 1178 0 
L 603 0 
L 603 3500 
z
M 603 4863 
L 1178 4863 
L 1178 4134 
L 603 4134 
L 603 4863 
z
" transform="scale(0.015625)"/>
      <path id="DejaVuSans-62" d="M 3116 1747 
Q 3116 2381 2855 2742 
Q 2594 3103 2138 3103 
Q 1681 3103 1420 2742 
Q 1159 2381 1159 1747 
Q 1159 1113 1420 752 
Q 1681 391 2138 391 
Q 2594 391 2855 752 
Q 3116 1113 3116 1747 
z
M 1159 2969 
Q 1341 3281 1617 3432 
Q 1894 3584 2278 3584 
Q 2916 3584 3314 3078 
Q 3713 2572 3713 1747 
Q 3713 922 3314 415 
Q 2916 -91 2278 -91 
Q 1894 -91 1617 61 
Q 1341 213 1159 525 
L 1159 0 
L 581 0 
L 581 4863 
L 1159 4863 
L 1159 2969 
z
" transform="scale(0.015625)"/>
     </defs>
     <use xlink:href="#DejaVuSans-43"/>
     <use xlink:href="#DejaVuSans-68" x="69.824219"/>
     <use xlink:href="#DejaVuSans-75" x="133.203125"/>
     <use xlink:href="#DejaVuSans-6e" x="196.582031"/>
     <use xlink:href="#DejaVuSans-6b" x="259.960938"/>
     <use xlink:href="#DejaVuSans-73" x="317.871094"/>
     <use xlink:href="#DejaVuSans-20" x="369.970703"/>
     <use xlink:href="#DejaVuSans-44" x="401.757812"/>
     <use xlink:href="#DejaVuSans-69" x="478.759766"/>
     <use xlink:href="#DejaVuSans-73" x="506.542969"/>
     <use xlink:href="#DejaVuSans-74" x="558.642578"/>
     <use xlink:href="#DejaVuSans-72" x="597.851562"/>
     <use xlink:href="#DejaVuSans-69" x="638.964844"/>
     <use xlink:href="#DejaVuSans-62" x="666.748047"/>
     <use xlink:href="#DejaVuSans-75" x="730.224609"/>
     <use xlink:href="#DejaVuSans-74" x="793.603516"/>
     <use xlink:href="#DejaVuSans-69" x="832.8125"/>
     <use xlink:href="#DejaVuSans-6f" x="860.595703"/>
     <use xlink:href="#DejaVuSans-6e" x="921.777344"/>
    </g>
   </g>
   <g id="legend_1">
    <g id="patch_71">
     <path d="M 178.654531 49.558125 
L 309.165469 49.558125 
Q 311.165469 49.558125 311.165469 47.558125 
L 311.165469 33.88 
Q 311.165469 31.88 309.165469 31.88 
L 178.654531 31.88 
Q 176.654531 31.88 176.654531 33.88 
L 176.654531 47.558125 
Q 176.654531 49.558125 178.654531 49.558125 
z
" style="fill: #ffffff; opacity: 0.8; stroke: #cccccc; stroke-linejoin: miter"/>
    </g>
    <g id="patch_72">
     <path d="M 180.654531 43.478437 
L 200.654531 43.478437 
L 200.654531 36.478437 
L 180.654531 36.478437 
z
" style="fill: #1f77b4"/>
    </g>
    <g id="text_19">
     <!-- Chunks Distribution -->
     <g transform="translate(208.654531 43.478437) scale(0.1 -0.1)">
      <use xlink:href="#DejaVuSans-43"/>
      <use xlink:href="#DejaVuSans-68" x="69.824219"/>
      <use xlink:href="#DejaVuSans-75" x="133.203125"/>
      <use xlink:href="#DejaVuSans-6e" x="196.582031"/>
      <use xlink:href="#DejaVuSans-6b" x="259.960938"/>
      <use xlink:href="#DejaVuSans-73" x="317.871094"/>
      <use xlink:href="#DejaVuSans-20" x="369.970703"/>
      <use xlink:href="#DejaVuSans-44" x="401.757812"/>
      <use xlink:href="#DejaVuSans-69" x="478.759766"/>
      <use xlink:href="#DejaVuSans-73" x="506.542969"/>
      <use xlink:href="#DejaVuSans-74" x="558.642578"/>
      <use xlink:href="#DejaVuSans-72" x="597.851562"/>
      <use xlink:href="#DejaVuSans-69" x="638.964844"/>
      <use xlink:href="#DejaVuSans-62" x="666.748047"/>
      <use xlink:href="#DejaVuSans-75" x="730.224609"/>
      <use xlink:href="#DejaVuSans-74" x="793.603516"/>
      <use xlink:href="#DejaVuSans-69" x="832.8125"/>
      <use xlink:href="#DejaVuSans-6f" x="860.595703"/>
      <use xlink:href="#DejaVuSans-6e" x="921.777344"/>
     </g>
    </g>
   </g>
  </g>
 </g>
 <defs>
  <clipPath id="p7085936ebb">
   <rect x="66.62" y="26.88" width="354.58" height="219.16"/>
  </clipPath>
 </defs>
</svg>
